<svg width="949" height="212" viewBox="0 0 949 212" fill="none" xmlns="http://www.w3.org/2000/svg">
<path d="M32.1197 1.00027H0.679688V85.0003H9.55969V58.4803H32.1197C53.4797 58.4803 66.4397 47.6803 66.4397 29.8003C66.4397 11.8003 53.4797 1.00027 32.1197 1.00027ZM31.8797 50.6803H9.55969V8.68027H31.8797C48.6797 8.68027 57.5597 16.3603 57.5597 29.8003C57.5597 43.0003 48.6797 50.6803 31.8797 50.6803Z" fill="#1F201E"/>
<path d="M109.521 77.3203V46.1203H152.961V38.5603H109.521V8.68027H158.241V1.00027H100.641V85.0003H160.041V77.3203H109.521Z" fill="#1F201E"/>
<path d="M212.234 85.0003H221.114V8.68027H250.634V1.00027H182.714V8.68027H212.234V85.0003Z" fill="#1F201E"/>
<path d="M346.9 85.0003L326.38 56.2003C338.62 52.2403 345.58 43.0003 345.58 29.8003C345.58 11.8003 332.62 1.00027 311.26 1.00027H279.82V85.0003H288.7V58.3603H311.26C313.66 58.3603 315.82 58.2403 317.98 58.0003L337.18 85.0003H346.9ZM311.02 50.8003H288.7V8.68027H311.02C327.82 8.68027 336.7 16.3603 336.7 29.8003C336.7 43.0003 327.82 50.8003 311.02 50.8003Z" fill="#1F201E"/>
<path d="M381.539 85.0003H390.419V1.00027H381.539V85.0003Z" fill="#1F201E"/>
<path d="M469.23 85.7203C481.59 85.7203 492.63 81.5203 500.07 73.3603L494.43 67.7203C487.59 74.8003 479.19 77.8003 469.59 77.8003C449.31 77.8003 434.07 62.9203 434.07 43.0003C434.07 23.0803 449.31 8.20027 469.59 8.20027C479.19 8.20027 487.59 11.2003 494.43 18.1603L500.07 12.5203C492.63 4.36027 481.59 0.280273 469.35 0.280273C444.03 0.280273 425.31 18.4003 425.31 43.0003C425.31 67.6003 444.03 85.7203 469.23 85.7203Z" fill="#1F201E"/>
<path d="M595.44 1.00027V38.4403H542.88V1.00027H534V85.0003H542.88V46.2403H595.44V85.0003H604.2V1.00027H595.44Z" fill="#1F201E"/>
<path d="M683.337 85.7203C708.537 85.7203 727.377 67.6003 727.377 43.0003C727.377 18.4003 708.537 0.280273 683.337 0.280273C657.897 0.280273 639.177 18.5203 639.177 43.0003C639.177 67.4803 657.897 85.7203 683.337 85.7203ZM683.337 77.8003C663.057 77.8003 647.937 63.0403 647.937 43.0003C647.937 22.9603 663.057 8.20027 683.337 8.20027C703.497 8.20027 718.497 22.9603 718.497 43.0003C718.497 63.0403 703.497 77.8003 683.337 77.8003Z" fill="#1F201E"/>
<path d="M829.361 85.0003L808.841 56.2003C821.081 52.2403 828.041 43.0003 828.041 29.8003C828.041 11.8003 815.081 1.00027 793.721 1.00027H762.281V85.0003H771.161V58.3603H793.721C796.121 58.3603 798.281 58.2403 800.441 58.0003L819.641 85.0003H829.361ZM793.481 50.8003H771.161V8.68027H793.481C810.281 8.68027 819.161 16.3603 819.161 29.8003C819.161 43.0003 810.281 50.8003 793.481 50.8003Z" fill="#1F201E"/>
<path d="M446.088 211.44C467.568 211.44 477.408 200.88 477.408 188.52C477.408 157.92 425.688 171.84 425.688 148.8C425.688 140.4 432.527 133.56 447.888 133.56C455.328 133.56 463.728 135.84 470.928 140.52L473.928 133.44C467.208 128.76 457.368 126 447.888 126C426.527 126 416.928 136.68 416.928 149.04C416.928 180.12 468.648 165.96 468.648 189C468.648 197.28 461.808 203.88 446.088 203.88C435.048 203.88 424.368 199.56 418.368 193.68L414.888 200.52C421.128 207 433.488 211.44 446.088 211.44Z" fill="#1F201E"/>
<path d="M526.904 210.72H535.784V134.4H565.304V126.72H497.384V134.4H526.904V210.72Z" fill="#1F201E"/>
<path d="M626.689 211.44C648.169 211.44 661.129 198.96 661.129 174.84V126.72H652.489V174.48C652.489 194.4 643.129 203.52 626.689 203.52C610.369 203.52 601.009 194.4 601.009 174.48V126.72H592.129V174.84C592.129 198.96 605.209 211.44 626.689 211.44Z" fill="#1F201E"/>
<path d="M702.888 210.72H737.088C763.968 210.72 782.088 193.44 782.088 168.72C782.088 144 763.968 126.72 737.088 126.72H702.888V210.72ZM711.768 203.04V134.4H736.608C758.928 134.4 773.328 148.56 773.328 168.72C773.328 188.88 758.928 203.04 736.608 203.04H711.768Z" fill="#1F201E"/>
<path d="M817.029 210.72H825.909V126.72H817.029V210.72Z" fill="#1F201E"/>
<path d="M904.96 211.44C930.16 211.44 949 193.32 949 168.72C949 144.12 930.16 126 904.96 126C879.52 126 860.8 144.24 860.8 168.72C860.8 193.2 879.52 211.44 904.96 211.44ZM904.96 203.52C884.68 203.52 869.56 188.76 869.56 168.72C869.56 148.68 884.68 133.92 904.96 133.92C925.12 133.92 940.12 148.68 940.12 168.72C940.12 188.76 925.12 203.52 904.96 203.52Z" fill="#1F201E"/>
<path d="M0.999981 164L0.999981 171L347 171L347 164L0.999981 164Z" fill="#1F201E"/>
</svg>
